<?xml version="1.0" encoding="UTF-8"?>
<svg width="100px" height="76px" viewBox="0 0 100 76" version="1.1" xmlns="http://www.w3.org/2000/svg" xmlns:xlink="http://www.w3.org/1999/xlink">
    <!-- Generator: Sketch 42 (36781) - http://www.bohemiancoding.com/sketch -->
    <title>connect-off</title>
    <desc>Created with Sketch.</desc>
    <defs></defs>
    <g id="DBE" stroke="none" stroke-width="1" fill="none" fill-rule="evenodd" opacity="0.4">
        <g id="DBE_1.0_Extension_no_connection" transform="translate(-70.000000, -44.000000)">
            <g id="connect-off" transform="translate(70.000000, 32.000000)">
                <polygon id="Rectangle-582" fill-opacity="0.5" fill="#F97273" opacity="0" points="0 0 100 0 100 100 0 100"></polygon>
                <path d="M54.1666667,33.3333333 L54.1666667,41.6666667 L37.5,41.6666667 L37.5,79.1666667 L91.6666667,79.1666667 L91.6666667,41.6666667 L75,41.6666667 L75,33.3333333 L91.6666667,33.3333333 C96.2679685,33.3333333 100,36.5594904 100,41.6666667 L100,79.1666667 C100,84.2796222 96.2914233,87.5 91.6666667,87.5 L37.5,87.5 C32.8978252,87.5 29.1666667,84.273843 29.1666667,79.1666667 L29.1666667,41.6666667 C29.1666667,36.5537111 32.8850383,33.3333333 37.5,33.3333333 L54.1666667,33.3333333 Z M62.5,66.6666667 L45.8333333,66.6666667 L45.8333333,58.3333333 L62.5,58.3333333 L62.5,20.8333333 L8.33333333,20.8333333 L8.33333333,58.3333333 L25,58.3333333 L25,66.6666667 L8.33333333,66.6666667 C3.73203146,66.6666667 0,63.4405096 0,58.3333333 L0,20.8333333 C1.1184469e-14,15.7203778 3.70857672,12.5 8.33333333,12.5 L62.5,12.5 C67.1021748,12.5 70.8333333,15.726157 70.8333333,20.8333333 L70.8333333,58.3333333 C70.8333333,63.4462889 67.1149617,66.6666667 62.5,66.6666667 Z" id="Combined-Shape" fill="#9DA3A5" fill-rule="nonzero"></path>
            </g>
        </g>
    </g>
</svg>