<?xml version="1.0" encoding="UTF-8"?>
<svg width="24px" height="24px" viewBox="0 0 24 24" version="1.1" xmlns="http://www.w3.org/2000/svg" xmlns:xlink="http://www.w3.org/1999/xlink">
    <!-- Generator: Sketch 42 (36781) - http://www.bohemiancoding.com/sketch -->
    <title>delete_upm</title>
    <desc>Created with Sketch.</desc>
    <defs></defs>
    <g id="DBE-assets" stroke="none" stroke-width="1" fill="none" fill-rule="evenodd">
        <g id="delete_upm">
            <g id="delete">
                <rect id="Rectangle-582" fill-opacity="0.5" fill="#F97273" opacity="0" x="0" y="0" width="24" height="24"></rect>
                <path d="M3,7 L1,7 L1,5 L3,5 L3,4.5 L3,3.5 C3,2.11686176 4.1172722,1 5.50524116,1 L18.4947588,1 C19.8789521,1 21.0000141,2.1140506 21.0001851,3.49987661 L21.0003702,4.99987661 L21,4.99987665 L23,5 L23,7 L21,7 L21,22 L21,23 L4,23 L3,23 L3,7 Z M5,7 L5,21 L19,21 L19,7 L5,7 Z M5,5 L19,5 L19,4 L19.0002468,4 L19.0001851,3.50012339 C19.0001507,3.22153336 18.7772231,3 18.4947588,3 L5.50524116,3 C5.22167723,3 5,3.2215958 5,3.5 L5,4.5 L5,5 Z M10,0 L14,0 L14,1 L10,1 L10,0 Z M15,9 L17,9 L17,19 L15,19 L15,9 Z M11,9 L13,9 L13,19 L11,19 L11,9 Z M7,9 L9,9 L9,19 L7,19 L7,9 Z" id="Combined-Shape" fill="#9DA3A5" fill-rule="nonzero"></path>
            </g>
        </g>
    </g>
</svg>