<?xml version="1.0" encoding="UTF-8"?>
<svg width="28px" height="24px" viewBox="0 0 28 24" version="1.1" xmlns="http://www.w3.org/2000/svg" xmlns:xlink="http://www.w3.org/1999/xlink">
    <!-- Generator: Sketch 42 (36781) - http://www.bohemiancoding.com/sketch -->
    <title>locked_padlock_upm</title>
    <desc>Created with Sketch.</desc>
    <defs></defs>
    <g id="DBE-assets" stroke="none" stroke-width="1" fill="none" fill-rule="evenodd">
        <g id="locked_padlock_upm">
            <g id="locked_padlock">
                <rect id="Rectangle-582" fill-opacity="0.5" fill="#F97273" opacity="0" x="0" y="0" width="24" height="24"></rect>
                <path d="M20,20 L20,10 L4,10 L4,20 L20,20 Z M21,22 L2,22 L2,21 L2,8 L3,8 L22,8 L22,9 L22,22 L21,22 Z M13,15.7344107 L13,18 L11,18 L11,15.7341197 C10.4021986,15.3900305 10,14.7454435 10,14 C10,12.8954305 10.8877296,12 12,12 C13.1045695,12 14,12.8877296 14,14 C14,14.741694 13.5997381,15.3890909 13,15.7344107 Z" id="Rectangle-468-Copy-5" fill="#2D9FFF"></path>
                <path d="M6,6 C6,3.790861 7.79652125,2 9.99582624,2 L14.0041738,2 C16.2110077,2 18,3.79535615 18,6 L18,10 L6,10 L6,6 Z M8,6 L8,8 L16,8 L16,6 C16,4.88772964 15.1054196,4 14.0018986,4 L9.99810135,4 C8.88670635,4 8,4.8954305 8,6 Z" id="Combined-Shape-Copy-4" fill="#2D9FFF"></path>
            </g>
        </g>
    </g>
</svg>