<svg width="84" height="85" viewBox="0 0 84 85" xmlns="http://www.w3.org/2000/svg"><title>53DEF40F-47FA-4BB8-B060-301FDCD67AA9</title><g fill="#9DA3A5" fill-rule="evenodd" opacity=".4"><path d="M75.333 76.2v-42H8.667v42h66.666zm4.167 8.4H.333V25.8h83.334V84.6H79.5zM46.167 58.284V67.8h-8.334v-9.514a8.322 8.322 0 0 1-4.166-7.212v-.148c0-4.598 3.74-8.326 8.333-8.326 4.602 0 8.333 3.728 8.333 8.326v.148c0 3.08-1.678 5.77-4.166 7.21z"/><path d="M17 17.4C17 8.122 24.513.6 33.806.6h16.388C59.476.6 67 8.12 67 17.4v16.8H17V17.4zm8.333 0v8.4h33.334v-8.4c0-4.63-3.761-8.4-8.401-8.4H33.734c-4.642 0-8.4 3.76-8.4 8.4z"/></g></svg>